<?xml version="1.0" standalone="no"?><svg version="1.1" xmlns="http://www.w3.org/2000/svg" width="878.51513671875" height="851.5"><svg x="205.51513671875" y="60.5" width="190.48486328125" height="67"><path d="M4,22L81.242431640625,22Q90.742431640625,22,90.742431640625,31.5L90.742431640625,31.5Q90.742431640625,41,100.242431640625,41L177.48486328125,41L100.242431640625,41Q90.742431640625,41,90.742431640625,31.5L90.742431640625,31.5Q90.742431640625,22,81.242431640625,22L4,22L4,22M4,18L14,22L4,26M167.48486328125,37L167.48486328125,45" fill="none" stroke="#D3D3D3" stroke-width="1"></path><text x="7" y="19" style="font-family: &quot;Open Sans&quot;, sans-serif; font-size: 14px; font-weight: normal; fill: transparent;">*</text><text x="166.47998046875" y="38" style="font-family: &quot;Open Sans&quot;, sans-serif; font-size: 14px; font-weight: normal; fill: transparent;">1</text></svg><svg x="205.51513671875" y="79.5" width="190.48486328125" height="62"><path d="M4,36L83.742431640625,36Q90.742431640625,36,90.742431640625,29L90.742431640625,29Q90.742431640625,22,97.742431640625,22L177.48486328125,22L97.742431640625,22Q90.742431640625,22,90.742431640625,29L90.742431640625,29Q90.742431640625,36,83.742431640625,36L4,36L4,36M4,32L14,36L4,40M167.48486328125,18L167.48486328125,26" fill="none" stroke="#D3D3D3" stroke-width="1"></path><text x="7" y="33" style="font-family: &quot;Open Sans&quot;, sans-serif; font-size: 14px; font-weight: normal; fill: transparent;">*</text><text x="166.47998046875" y="19" style="font-family: &quot;Open Sans&quot;, sans-serif; font-size: 14px; font-weight: normal; fill: transparent;">1</text></svg><svg x="588.51513671875" y="79.5" width="88.48486328125" height="229"><path d="M4,22L29.742431640625,22Q39.742431640625,22,39.742431640625,32L39.742431640625,193Q39.742431640625,203,49.742431640625,203L75.48486328125,203L49.742431640625,203Q39.742431640625,203,39.742431640625,193L39.742431640625,32Q39.742431640625,22,29.742431640625,22L4,22L4,22M14,18L14,26M75.48486328125,199L65.48486328125,203L75.48486328125,207" fill="none" stroke="#D3D3D3" stroke-width="1"></path><text x="7" y="19" style="font-family: &quot;Open Sans&quot;, sans-serif; font-size: 14px; font-weight: normal; fill: transparent;">1</text><text x="64.77392578125" y="200" style="font-family: &quot;Open Sans&quot;, sans-serif; font-size: 14px; font-weight: normal; fill: transparent;">*</text></svg><svg x="300.76513671875" y="79.5" width="95.23486328125" height="379.5"><path d="M4,353.5L33.117431640625,353.5Q43.117431640625,353.5,43.117431640625,343.5L43.117431640625,32Q43.117431640625,22,53.117431640625,22L82.23486328125,22L53.117431640625,22Q43.117431640625,22,43.117431640625,32L43.117431640625,343.5Q43.117431640625,353.5,33.117431640625,353.5L4,353.5L4,353.5M4,349.5L14,353.5L4,357.5M72.23486328125,18L72.23486328125,26" fill="none" stroke="#D3D3D3" stroke-width="1"></path><text x="7" y="350.5" style="font-family: &quot;Open Sans&quot;, sans-serif; font-size: 14px; font-weight: normal; fill: transparent;">*</text><text x="71.22998046875" y="19" style="font-family: &quot;Open Sans&quot;, sans-serif; font-size: 14px; font-weight: normal; fill: transparent;">1</text></svg><svg x="483.9418618176179" y="79.5" width="131.5732749011321" height="694.8529776674939"><path d="M108.5732749011321,22L118.5732749011321,22Q128.5732749011321,22,128.5732749011321,32L128.5732749011321,658.8529776674939Q128.5732749011321,668.8529776674939,118.5732749011321,668.8529776674939L4,668.8529776674939L118.5732749011321,668.8529776674939Q128.5732749011321,668.8529776674939,128.5732749011321,658.8529776674939L128.5732749011321,32Q128.5732749011321,22,118.5732749011321,22L108.5732749011321,22L108.5732749011321,22ZM118.5732749011321,18L118.5732749011321,26M4,664.8529776674939L14,668.8529776674939L4,672.8529776674939" fill="none" stroke="#D3D3D3" stroke-width="1"></path><text x="111.5732749011321" y="19" style="font-family: &quot;Open Sans&quot;, sans-serif; font-size: 14px; font-weight: normal; fill: transparent;">1</text><text x="7" y="665.8529776674939" style="font-family: &quot;Open Sans&quot;, sans-serif; font-size: 14px; font-weight: normal; fill: transparent;">*</text></svg><svg x="203.48681640625003" y="582" width="87.80660791136788" height="159.35297766749386"><path d="M4,22L29.40330395568394,22Q39.40330395568394,22,39.40330395568394,32L39.40330395568394,123.35297766749386Q39.40330395568394,133.35297766749386,49.40330395568394,133.35297766749386L74.80660791136788,133.35297766749386L49.40330395568394,133.35297766749386Q39.40330395568394,133.35297766749386,39.40330395568394,123.35297766749386L39.40330395568394,32Q39.40330395568394,22,29.40330395568394,22L4,22L4,22M14,18L14,26M74.80660791136788,129.35297766749386L64.80660791136788,133.35297766749386L74.80660791136788,137.35297766749386" fill="none" stroke="#D3D3D3" stroke-width="1"></path><text x="7" y="19" style="font-family: &quot;Open Sans&quot;, sans-serif; font-size: 14px; font-weight: normal; fill: transparent;">1</text><text x="64.09567041136788" y="130.35297766749386" style="font-family: &quot;Open Sans&quot;, sans-serif; font-size: 14px; font-weight: normal; fill: transparent;">*</text></svg><svg x="0" y="0"><rect x="0" y="0" width="209.51513671875" height="33" fill="#316896"></rect><text x="10" y="19.75" style="font-family: &quot;Open Sans&quot;, sans-serif; font-size: 13px; font-weight: bold; fill: rgb(255, 255, 255);">follows</text></svg><svg x="0" y="33"><rect x="0" y="0" width="209.51513671875" height="33" fill="#F2F2F2"></rect><text x="10" y="19.75" style="font-family: &quot;Open Sans&quot;, sans-serif; font-size: 13px; font-weight: bold; fill: black;">_id</text><text x="152.751953125" y="19.75" style="font-family: &quot;Open Sans&quot;, sans-serif; font-size: 13px; font-weight: bold; fill: black;">integer</text></svg><svg x="0" y="66"><rect x="0" y="0" width="209.51513671875" height="33" fill="#F2F2F2"></rect><text x="10" y="19.75" style="font-family: &quot;Open Sans&quot;, sans-serif; font-size: 13px; fill: rgb(111, 111, 111);">follow_id</text><text x="156.65576171875" y="19.75" style="font-family: &quot;Open Sans&quot;, sans-serif; font-size: 13px; fill: rgb(111, 111, 111);">integer</text></svg><svg x="0" y="99"><rect x="0" y="0" width="209.51513671875" height="33" fill="#F2F2F2"></rect><text x="10" y="19.75" style="font-family: &quot;Open Sans&quot;, sans-serif; font-size: 13px; fill: rgb(111, 111, 111);">member_id</text><text x="156.65576171875" y="19.75" style="font-family: &quot;Open Sans&quot;, sans-serif; font-size: 13px; fill: rgb(111, 111, 111);">integer</text></svg><svg x="0" y="132"><rect x="0" y="0" width="209.51513671875" height="33" fill="#F2F2F2"></rect><text x="10" y="19.75" style="font-family: &quot;Open Sans&quot;, sans-serif; font-size: 13px; fill: rgb(111, 111, 111);">created_at</text><text x="134.22314453125" y="19.75" style="font-family: &quot;Open Sans&quot;, sans-serif; font-size: 13px; fill: rgb(111, 111, 111);">timestamp</text></svg><svg x="383" y="19"><rect x="0" y="0" width="209.51513671875" height="33" fill="#316896"></rect><text x="10" y="19.75" style="font-family: &quot;Open Sans&quot;, sans-serif; font-size: 13px; font-weight: bold; fill: rgb(255, 255, 255);">member</text></svg><svg x="383" y="52"><rect x="0" y="0" width="209.51513671875" height="33" fill="#F2F2F2"></rect><text x="10" y="19.75" style="font-family: &quot;Open Sans&quot;, sans-serif; font-size: 13px; font-weight: bold; fill: black;">_id</text><text x="152.751953125" y="19.75" style="font-family: &quot;Open Sans&quot;, sans-serif; font-size: 13px; font-weight: bold; fill: black;">integer</text></svg><svg x="383" y="85"><rect x="0" y="0" width="209.51513671875" height="33" fill="#F2F2F2"></rect><text x="10" y="19.75" style="font-family: &quot;Open Sans&quot;, sans-serif; font-size: 13px; fill: rgb(111, 111, 111);">member_id</text><text x="153.74853515625" y="19.75" style="font-family: &quot;Open Sans&quot;, sans-serif; font-size: 13px; fill: rgb(111, 111, 111);">varchar</text></svg><svg x="383" y="118"><rect x="0" y="0" width="209.51513671875" height="33" fill="#F2F2F2"></rect><text x="10" y="19.75" style="font-family: &quot;Open Sans&quot;, sans-serif; font-size: 13px; fill: rgb(111, 111, 111);">openid</text><text x="153.74853515625" y="19.75" style="font-family: &quot;Open Sans&quot;, sans-serif; font-size: 13px; fill: rgb(111, 111, 111);">varchar</text></svg><svg x="383" y="151"><rect x="0" y="0" width="209.51513671875" height="33" fill="#F2F2F2"></rect><text x="10" y="19.75" style="font-family: &quot;Open Sans&quot;, sans-serif; font-size: 13px; fill: rgb(111, 111, 111);">unionid</text><text x="153.74853515625" y="19.75" style="font-family: &quot;Open Sans&quot;, sans-serif; font-size: 13px; fill: rgb(111, 111, 111);">varchar</text></svg><svg x="383" y="184"><rect x="0" y="0" width="209.51513671875" height="33" fill="#F2F2F2"></rect><text x="10" y="19.75" style="font-family: &quot;Open Sans&quot;, sans-serif; font-size: 13px; fill: rgb(111, 111, 111);">username</text><text x="153.74853515625" y="19.75" style="font-family: &quot;Open Sans&quot;, sans-serif; font-size: 13px; fill: rgb(111, 111, 111);">varchar</text></svg><svg x="383" y="217"><rect x="0" y="0" width="209.51513671875" height="33" fill="#F2F2F2"></rect><text x="10" y="19.75" style="font-family: &quot;Open Sans&quot;, sans-serif; font-size: 13px; fill: rgb(111, 111, 111);">role</text><text x="153.74853515625" y="19.75" style="font-family: &quot;Open Sans&quot;, sans-serif; font-size: 13px; fill: rgb(111, 111, 111);">varchar</text></svg><svg x="383" y="250"><rect x="0" y="0" width="209.51513671875" height="33" fill="#F2F2F2"></rect><text x="10" y="19.75" style="font-family: &quot;Open Sans&quot;, sans-serif; font-size: 13px; fill: rgb(111, 111, 111);">email</text><text x="153.74853515625" y="19.75" style="font-family: &quot;Open Sans&quot;, sans-serif; font-size: 13px; fill: rgb(111, 111, 111);">varchar</text></svg><svg x="383" y="283"><rect x="0" y="0" width="209.51513671875" height="33" fill="#F2F2F2"></rect><text x="10" y="19.75" style="font-family: &quot;Open Sans&quot;, sans-serif; font-size: 13px; fill: rgb(111, 111, 111);">phone</text><text x="153.74853515625" y="19.75" style="font-family: &quot;Open Sans&quot;, sans-serif; font-size: 13px; fill: rgb(111, 111, 111);">varchar</text></svg><svg x="383" y="316"><rect x="0" y="0" width="209.51513671875" height="33" fill="#F2F2F2"></rect><text x="10" y="19.75" style="font-family: &quot;Open Sans&quot;, sans-serif; font-size: 13px; fill: rgb(111, 111, 111);">province_id</text><text x="153.74853515625" y="19.75" style="font-family: &quot;Open Sans&quot;, sans-serif; font-size: 13px; fill: rgb(111, 111, 111);">varchar</text></svg><svg x="383" y="349"><rect x="0" y="0" width="209.51513671875" height="33" fill="#F2F2F2"></rect><text x="10" y="19.75" style="font-family: &quot;Open Sans&quot;, sans-serif; font-size: 13px; fill: rgb(111, 111, 111);">city_id</text><text x="153.74853515625" y="19.75" style="font-family: &quot;Open Sans&quot;, sans-serif; font-size: 13px; fill: rgb(111, 111, 111);">varchar</text></svg><svg x="383" y="382"><rect x="0" y="0" width="209.51513671875" height="33" fill="#F2F2F2"></rect><text x="10" y="19.75" style="font-family: &quot;Open Sans&quot;, sans-serif; font-size: 13px; fill: rgb(111, 111, 111);">district_id</text><text x="153.74853515625" y="19.75" style="font-family: &quot;Open Sans&quot;, sans-serif; font-size: 13px; fill: rgb(111, 111, 111);">varchar</text></svg><svg x="383" y="415"><rect x="0" y="0" width="209.51513671875" height="33" fill="#F2F2F2"></rect><text x="10" y="19.75" style="font-family: &quot;Open Sans&quot;, sans-serif; font-size: 13px; fill: rgb(111, 111, 111);">address</text><text x="153.74853515625" y="19.75" style="font-family: &quot;Open Sans&quot;, sans-serif; font-size: 13px; fill: rgb(111, 111, 111);">varchar</text></svg><svg x="383" y="448"><rect x="0" y="0" width="209.51513671875" height="33" fill="#F2F2F2"></rect><text x="10" y="19.75" style="font-family: &quot;Open Sans&quot;, sans-serif; font-size: 13px; fill: rgb(111, 111, 111);">avatar_url</text><text x="153.74853515625" y="19.75" style="font-family: &quot;Open Sans&quot;, sans-serif; font-size: 13px; fill: rgb(111, 111, 111);">varchar</text></svg><svg x="383" y="481"><rect x="0" y="0" width="209.51513671875" height="33" fill="#F2F2F2"></rect><text x="10" y="19.75" style="font-family: &quot;Open Sans&quot;, sans-serif; font-size: 13px; fill: rgb(111, 111, 111);">created_at</text><text x="134.22314453125" y="19.75" style="font-family: &quot;Open Sans&quot;, sans-serif; font-size: 13px; fill: rgb(111, 111, 111);">timestamp</text></svg><svg x="383" y="514"><rect x="0" y="0" width="209.51513671875" height="33" fill="#F2F2F2"></rect><text x="10" y="19.75" style="font-family: &quot;Open Sans&quot;, sans-serif; font-size: 13px; fill: rgb(111, 111, 111);">update_at</text><text x="134.22314453125" y="19.75" style="font-family: &quot;Open Sans&quot;, sans-serif; font-size: 13px; fill: rgb(111, 111, 111);">timestamp</text></svg><svg x="383" y="547"><rect x="0" y="0" width="209.51513671875" height="33" fill="#F2F2F2"></rect><text x="10" y="19.75" style="font-family: &quot;Open Sans&quot;, sans-serif; font-size: 13px; fill: rgb(111, 111, 111);">login_at</text><text x="134.22314453125" y="19.75" style="font-family: &quot;Open Sans&quot;, sans-serif; font-size: 13px; fill: rgb(111, 111, 111);">timestamp</text></svg><svg x="95.25000000000001" y="218.5"><rect x="0" y="0" width="209.51513671875" height="33" fill="#316896"></rect><text x="10" y="19.75" style="font-family: &quot;Open Sans&quot;, sans-serif; font-size: 13px; font-weight: bold; fill: rgb(255, 255, 255);">activation_code</text></svg><svg x="95.25000000000001" y="251.5"><rect x="0" y="0" width="209.51513671875" height="33" fill="#F2F2F2"></rect><text x="10" y="19.75" style="font-family: &quot;Open Sans&quot;, sans-serif; font-size: 13px; font-weight: bold; fill: black;">_id</text><text x="152.751953125" y="19.75" style="font-family: &quot;Open Sans&quot;, sans-serif; font-size: 13px; font-weight: bold; fill: black;">integer</text></svg><svg x="95.25000000000001" y="284.5"><rect x="0" y="0" width="209.51513671875" height="33" fill="#F2F2F2"></rect><text x="10" y="19.75" style="font-family: &quot;Open Sans&quot;, sans-serif; font-size: 13px; fill: rgb(111, 111, 111);">code</text><text x="153.74853515625" y="19.75" style="font-family: &quot;Open Sans&quot;, sans-serif; font-size: 13px; fill: rgb(111, 111, 111);">varchar</text></svg><svg x="95.25000000000001" y="317.5"><rect x="0" y="0" width="209.51513671875" height="33" fill="#F2F2F2"></rect><text x="10" y="19.75" style="font-family: &quot;Open Sans&quot;, sans-serif; font-size: 13px; fill: rgb(111, 111, 111);">days</text><text x="156.65576171875" y="19.75" style="font-family: &quot;Open Sans&quot;, sans-serif; font-size: 13px; fill: rgb(111, 111, 111);">integer</text></svg><svg x="95.25000000000001" y="350.5"><rect x="0" y="0" width="209.51513671875" height="33" fill="#F2F2F2"></rect><text x="10" y="19.75" style="font-family: &quot;Open Sans&quot;, sans-serif; font-size: 13px; fill: rgb(111, 111, 111);">role</text><text x="153.74853515625" y="19.75" style="font-family: &quot;Open Sans&quot;, sans-serif; font-size: 13px; fill: rgb(111, 111, 111);">varchar</text></svg><svg x="95.25000000000001" y="383.5"><rect x="0" y="0" width="209.51513671875" height="33" fill="#F2F2F2"></rect><text x="10" y="19.75" style="font-family: &quot;Open Sans&quot;, sans-serif; font-size: 13px; fill: rgb(111, 111, 111);">created_at</text><text x="134.22314453125" y="19.75" style="font-family: &quot;Open Sans&quot;, sans-serif; font-size: 13px; fill: rgb(111, 111, 111);">timestamp</text></svg><svg x="95.25000000000001" y="416.5"><rect x="0" y="0" width="209.51513671875" height="33" fill="#F2F2F2"></rect><text x="10" y="19.75" style="font-family: &quot;Open Sans&quot;, sans-serif; font-size: 13px; fill: rgb(111, 111, 111);">writeoff_id</text><text x="153.74853515625" y="19.75" style="font-family: &quot;Open Sans&quot;, sans-serif; font-size: 13px; fill: rgb(111, 111, 111);">varchar</text></svg><svg x="95.25000000000001" y="449.5"><rect x="0" y="0" width="209.51513671875" height="33" fill="#F2F2F2"></rect><text x="10" y="19.75" style="font-family: &quot;Open Sans&quot;, sans-serif; font-size: 13px; fill: rgb(111, 111, 111);">writeoff_at</text><text x="153.74853515625" y="19.75" style="font-family: &quot;Open Sans&quot;, sans-serif; font-size: 13px; fill: rgb(111, 111, 111);">varchar</text></svg><svg x="664" y="167"><rect x="0" y="0" width="209.51513671875" height="33" fill="#316896"></rect><text x="10" y="19.75" style="font-family: &quot;Open Sans&quot;, sans-serif; font-size: 13px; font-weight: bold; fill: rgb(255, 255, 255);">serial_code</text></svg><svg x="664" y="200"><rect x="0" y="0" width="209.51513671875" height="33" fill="#F2F2F2"></rect><text x="10" y="19.75" style="font-family: &quot;Open Sans&quot;, sans-serif; font-size: 13px; font-weight: bold; fill: black;">_id</text><text x="152.751953125" y="19.75" style="font-family: &quot;Open Sans&quot;, sans-serif; font-size: 13px; font-weight: bold; fill: black;">integer</text></svg><svg x="664" y="233"><rect x="0" y="0" width="209.51513671875" height="33" fill="#F2F2F2"></rect><text x="10" y="19.75" style="font-family: &quot;Open Sans&quot;, sans-serif; font-size: 13px; fill: rgb(111, 111, 111);">license</text><text x="153.74853515625" y="19.75" style="font-family: &quot;Open Sans&quot;, sans-serif; font-size: 13px; fill: rgb(111, 111, 111);">varchar</text></svg><svg x="664" y="266"><rect x="0" y="0" width="209.51513671875" height="33" fill="#F2F2F2"></rect><text x="10" y="19.75" style="font-family: &quot;Open Sans&quot;, sans-serif; font-size: 13px; fill: rgb(111, 111, 111);">member_id</text><text x="153.74853515625" y="19.75" style="font-family: &quot;Open Sans&quot;, sans-serif; font-size: 13px; fill: rgb(111, 111, 111);">varchar</text></svg><svg x="664" y="299"><rect x="0" y="0" width="209.51513671875" height="33" fill="#F2F2F2"></rect><text x="10" y="19.75" style="font-family: &quot;Open Sans&quot;, sans-serif; font-size: 13px; fill: rgb(111, 111, 111);">created_at</text><text x="134.22314453125" y="19.75" style="font-family: &quot;Open Sans&quot;, sans-serif; font-size: 13px; fill: rgb(111, 111, 111);">timestamp</text></svg><svg x="664" y="332"><rect x="0" y="0" width="209.51513671875" height="33" fill="#F2F2F2"></rect><text x="10" y="19.75" style="font-family: &quot;Open Sans&quot;, sans-serif; font-size: 13px; fill: rgb(111, 111, 111);">update_at</text><text x="134.22314453125" y="19.75" style="font-family: &quot;Open Sans&quot;, sans-serif; font-size: 13px; fill: rgb(111, 111, 111);">timestamp</text></svg><svg x="664" y="365"><rect x="0" y="0" width="209.51513671875" height="33" fill="#F2F2F2"></rect><text x="10" y="19.75" style="font-family: &quot;Open Sans&quot;, sans-serif; font-size: 13px; fill: rgb(111, 111, 111);">end_at</text><text x="134.22314453125" y="19.75" style="font-family: &quot;Open Sans&quot;, sans-serif; font-size: 13px; fill: rgb(111, 111, 111);">timestamp</text></svg><svg x="8.750000000000028" y="521.5"><rect x="0" y="0" width="198.73681640625" height="33" fill="#316896"></rect><text x="10" y="19.75" style="font-family: &quot;Open Sans&quot;, sans-serif; font-size: 13px; font-weight: bold; fill: rgb(255, 255, 255);">invite_tasks</text></svg><svg x="8.750000000000028" y="554.5"><rect x="0" y="0" width="198.73681640625" height="33" fill="#F2F2F2"></rect><text x="10" y="19.75" style="font-family: &quot;Open Sans&quot;, sans-serif; font-size: 13px; font-weight: bold; fill: black;">_id</text><text x="141.9736328125" y="19.75" style="font-family: &quot;Open Sans&quot;, sans-serif; font-size: 13px; font-weight: bold; fill: black;">integer</text></svg><svg x="8.750000000000028" y="587.5"><rect x="0" y="0" width="198.73681640625" height="33" fill="#F2F2F2"></rect><text x="10" y="19.75" style="font-family: &quot;Open Sans&quot;, sans-serif; font-size: 13px; fill: rgb(111, 111, 111);">id</text><text x="145.87744140625" y="19.75" style="font-family: &quot;Open Sans&quot;, sans-serif; font-size: 13px; fill: rgb(111, 111, 111);">integer</text></svg><svg x="8.750000000000028" y="620.5"><rect x="0" y="0" width="198.73681640625" height="33" fill="#F2F2F2"></rect><text x="10" y="19.75" style="font-family: &quot;Open Sans&quot;, sans-serif; font-size: 13px; fill: rgb(111, 111, 111);">name</text><text x="142.97021484375" y="19.75" style="font-family: &quot;Open Sans&quot;, sans-serif; font-size: 13px; fill: rgb(111, 111, 111);">varchar</text></svg><svg x="8.750000000000028" y="653.5"><rect x="0" y="0" width="198.73681640625" height="33" fill="#F2F2F2"></rect><text x="10" y="19.75" style="font-family: &quot;Open Sans&quot;, sans-serif; font-size: 13px; fill: rgb(111, 111, 111);">project_id</text><text x="145.87744140625" y="19.75" style="font-family: &quot;Open Sans&quot;, sans-serif; font-size: 13px; fill: rgb(111, 111, 111);">integer</text></svg><svg x="8.750000000000028" y="686.5"><rect x="0" y="0" width="198.73681640625" height="33" fill="#F2F2F2"></rect><text x="10" y="19.75" style="font-family: &quot;Open Sans&quot;, sans-serif; font-size: 13px; fill: rgb(111, 111, 111);">describes</text><text x="142.97021484375" y="19.75" style="font-family: &quot;Open Sans&quot;, sans-serif; font-size: 13px; fill: rgb(111, 111, 111);">varchar</text></svg><svg x="8.750000000000028" y="719.5"><rect x="0" y="0" width="198.73681640625" height="33" fill="#F2F2F2"></rect><text x="10" y="19.75" style="font-family: &quot;Open Sans&quot;, sans-serif; font-size: 13px; fill: rgb(111, 111, 111);">target</text><text x="145.87744140625" y="19.75" style="font-family: &quot;Open Sans&quot;, sans-serif; font-size: 13px; fill: rgb(111, 111, 111);">integer</text></svg><svg x="8.750000000000028" y="752.5"><rect x="0" y="0" width="198.73681640625" height="33" fill="#F2F2F2"></rect><text x="10" y="19.75" style="font-family: &quot;Open Sans&quot;, sans-serif; font-size: 13px; fill: rgb(111, 111, 111);">start_at</text><text x="123.44482421875" y="19.75" style="font-family: &quot;Open Sans&quot;, sans-serif; font-size: 13px; fill: rgb(111, 111, 111);">timestamp</text></svg><svg x="8.750000000000028" y="785.5"><rect x="0" y="0" width="198.73681640625" height="33" fill="#F2F2F2"></rect><text x="10" y="19.75" style="font-family: &quot;Open Sans&quot;, sans-serif; font-size: 13px; fill: rgb(111, 111, 111);">end_at</text><text x="123.44482421875" y="19.75" style="font-family: &quot;Open Sans&quot;, sans-serif; font-size: 13px; fill: rgb(111, 111, 111);">timestamp</text></svg><svg x="8.750000000000028" y="818.5"><rect x="0" y="0" width="198.73681640625" height="33" fill="#F2F2F2"></rect><text x="10" y="19.75" style="font-family: &quot;Open Sans&quot;, sans-serif; font-size: 13px; fill: rgb(111, 111, 111);">reward_days</text><text x="145.87744140625" y="19.75" style="font-family: &quot;Open Sans&quot;, sans-serif; font-size: 13px; fill: rgb(111, 111, 111);">integer</text></svg><svg x="278.2934243176179" y="632.8529776674939"><rect x="0" y="0" width="209.6484375" height="33" fill="#316896"></rect><text x="10" y="19.75" style="font-family: &quot;Open Sans&quot;, sans-serif; font-size: 13px; font-weight: bold; fill: rgb(255, 255, 255);">invite_tasks_records</text></svg><svg x="278.2934243176179" y="665.8529776674939"><rect x="0" y="0" width="209.6484375" height="33" fill="#F2F2F2"></rect><text x="10" y="19.75" style="font-family: &quot;Open Sans&quot;, sans-serif; font-size: 13px; font-weight: bold; fill: black;">_id</text><text x="152.88525390625" y="19.75" style="font-family: &quot;Open Sans&quot;, sans-serif; font-size: 13px; font-weight: bold; fill: black;">integer</text></svg><svg x="278.2934243176179" y="698.8529776674939"><rect x="0" y="0" width="209.6484375" height="33" fill="#F2F2F2"></rect><text x="10" y="19.75" style="font-family: &quot;Open Sans&quot;, sans-serif; font-size: 13px; fill: rgb(111, 111, 111);">task_id</text><text x="153.8818359375" y="19.75" style="font-family: &quot;Open Sans&quot;, sans-serif; font-size: 13px; fill: rgb(111, 111, 111);">varchar</text></svg><svg x="278.2934243176179" y="731.8529776674939"><rect x="0" y="0" width="209.6484375" height="33" fill="#F2F2F2"></rect><text x="10" y="19.75" style="font-family: &quot;Open Sans&quot;, sans-serif; font-size: 13px; fill: rgb(111, 111, 111);">member_id</text><text x="153.8818359375" y="19.75" style="font-family: &quot;Open Sans&quot;, sans-serif; font-size: 13px; fill: rgb(111, 111, 111);">varchar</text></svg><svg x="278.2934243176179" y="764.8529776674939"><rect x="0" y="0" width="209.6484375" height="33" fill="#F2F2F2"></rect><text x="10" y="19.75" style="font-family: &quot;Open Sans&quot;, sans-serif; font-size: 13px; fill: rgb(111, 111, 111);">achieve_at</text><text x="134.3564453125" y="19.75" style="font-family: &quot;Open Sans&quot;, sans-serif; font-size: 13px; fill: rgb(111, 111, 111);">timestamp</text></svg></svg>