<?xml version="1.0" standalone="no"?><svg version="1.1" xmlns="http://www.w3.org/2000/svg" width="878.51513671875" height="851.5"><svg x="205.51513671875" y="60.5" width="190.48486328125" height="67"><path d="M4,22L81.242431640625,22Q90.742431640625,22,90.742431640625,31.5L90.742431640625,31.5Q90.742431640625,41,100.242431640625,41L177.48486328125,41L100.242431640625,41Q90.742431640625,41,90.742431640625,31.5L90.742431640625,31.5Q90.742431640625,22,81.242431640625,22L4,22L4,22M4,18L14,22L4,26M167.48486328125,37L167.48486328125,45" fill="none" stroke="#D3D3D3" stroke-width="1"></path><text x="7" y="19" style="font-family: &quot;Open Sans&quot;, sans-serif; font-size: 14px; font-weight: normal; fill: transparent;">*</text><text x="166.47998046875" y="38" style="font-family: &quot;Open Sans&quot;, sans-serif; font-size: 14px; font-weight: normal; fill: transparent;">1</text></svg><svg x="205.51513671875" y="79.5" width="190.48486328125" height="62"><path d="M4,36L83.742431640625,36Q90.742431640625,36,90.742431640625,29L90.742431640625,29Q90.742431640625,22,97.742431640625,22L177.48486328125,22L97.742431640625,22Q90.742431640625,22,90.742431640625,29L90.742431640625,29Q90.742431640625,36,83.742431640625,36L4,36L4,36M4,32L14,36L4,40M167.48486328125,18L167.48486328125,26" fill="none" stroke="#D3D3D3" stroke-width="1"></path><text x="7" y="33" style="font-family: &quot;Open Sans&quot;, sans-serif; font-size: 14px; font-weight: normal; fill: transparent;">*</text><text x="166.47998046875" y="19" style="font-family: &quot;Open Sans&quot;, sans-serif; font-size: 14px; font-weight: normal; fill: transparent;">1</text></svg><svg x="588.51513671875" y="79.5" width="88.48486328125" height="229"><path d="M4,22L29.742431640625,22Q39.742431640625,22,39.742431640625,32L39.742431640625,193Q39.742431640625,203,49.742431640625,203L75.48486328125,203L49.742431640625,203Q39.742431640625,203,39.742431640625,193L39.742431640625,32Q39.742431640625,22,29.742431640625,22L4,22L4,22M14,18L14,26M75.48486328125,199L65.48486328125,203L75.48486328125,207" fill="none" stroke="#D3D3D3" stroke-width="1"></path><text x="7" y="19" style="font-family: &quot;Open Sans&quot;, sans-serif; font-size: 14px; font-weight: normal; fill: transparent;">1</text><text x="64.77392578125" y="200" style="font-family: &quot;Open Sans&quot;, sans-serif; font-size: 14px; font-weight: normal; fill: transparent;">*</text></svg><svg x="282.6552734375" y="79.5" width="113.3447265625" height="346.5"><path d="M4,320.5L42.17236328125,320.5Q52.17236328125,320.5,52.17236328125,310.5L52.17236328125,32Q52.17236328125,22,62.17236328125,22L100.3447265625,22L62.17236328125,22Q52.17236328125,22,52.17236328125,32L52.17236328125,310.5Q52.17236328125,320.5,42.17236328125,320.5L4,320.5L4,320.5M4,316.5L14,320.5L4,324.5M90.3447265625,18L90.3447265625,26" fill="none" stroke="#D3D3D3" stroke-width="1"></path><text x="7" y="317.5" style="font-family: &quot;Open Sans&quot;, sans-serif; font-size: 14px; font-weight: normal; fill: transparent;">*</text><text x="89.33984375" y="19" style="font-family: &quot;Open Sans&quot;, sans-serif; font-size: 14px; font-weight: normal; fill: transparent;">1</text></svg><svg x="477.9772216191068" y="79.5" width="137.53791509964321" height="668.6085607940447"><path d="M114.53791509964321,22L124.53791509964321,22Q134.53791509964321,22,134.53791509964321,32L134.53791509964321,632.6085607940447Q134.53791509964321,642.6085607940447,124.53791509964321,642.6085607940447L4,642.6085607940447L124.53791509964321,642.6085607940447Q134.53791509964321,642.6085607940447,134.53791509964321,632.6085607940447L134.53791509964321,32Q134.53791509964321,22,124.53791509964321,22L114.53791509964321,22L114.53791509964321,22ZM124.53791509964321,18L124.53791509964321,26M4,638.6085607940447L14,642.6085607940447L4,646.6085607940447" fill="none" stroke="#D3D3D3" stroke-width="1"></path><text x="117.53791509964321" y="19" style="font-family: &quot;Open Sans&quot;, sans-serif; font-size: 14px; font-weight: normal; fill: transparent;">1</text><text x="7" y="639.6085607940447" style="font-family: &quot;Open Sans&quot;, sans-serif; font-size: 14px; font-weight: normal; fill: transparent;">*</text></svg><svg x="203.48681640625003" y="582" width="81.84196771285676" height="133.1085607940447"><path d="M4,22L26.42098385642838,22Q36.42098385642838,22,36.42098385642838,32L36.42098385642838,97.1085607940447Q36.42098385642838,107.1085607940447,46.42098385642838,107.1085607940447L68.84196771285676,107.1085607940447L46.42098385642838,107.1085607940447Q36.42098385642838,107.1085607940447,36.42098385642838,97.1085607940447L36.42098385642838,32Q36.42098385642838,22,26.42098385642838,22L4,22L4,22M14,18L14,26M68.84196771285676,103.1085607940447L58.84196771285676,107.1085607940447L68.84196771285676,111.1085607940447" fill="none" stroke="#D3D3D3" stroke-width="1"></path><text x="7" y="19" style="font-family: &quot;Open Sans&quot;, sans-serif; font-size: 14px; font-weight: normal; fill: transparent;">1</text><text x="58.13103021285676" y="104.1085607940447" style="font-family: &quot;Open Sans&quot;, sans-serif; font-size: 14px; font-weight: normal; fill: transparent;">*</text></svg><svg x="0" y="0"><rect x="0" y="0" width="209.51513671875" height="33" fill="#316896"></rect><text x="10" y="19.75" style="font-family: &quot;Open Sans&quot;, sans-serif; font-size: 13px; font-weight: bold; fill: rgb(255, 255, 255);">follows</text></svg><svg x="0" y="33"><rect x="0" y="0" width="209.51513671875" height="33" fill="#F2F2F2"></rect><text x="10" y="19.75" style="font-family: &quot;Open Sans&quot;, sans-serif; font-size: 13px; font-weight: bold; fill: black;">_id</text><text x="152.751953125" y="19.75" style="font-family: &quot;Open Sans&quot;, sans-serif; font-size: 13px; font-weight: bold; fill: black;">integer</text></svg><svg x="0" y="66"><rect x="0" y="0" width="209.51513671875" height="33" fill="#F2F2F2"></rect><text x="10" y="19.75" style="font-family: &quot;Open Sans&quot;, sans-serif; font-size: 13px; fill: rgb(111, 111, 111);">follow_id</text><text x="156.65576171875" y="19.75" style="font-family: &quot;Open Sans&quot;, sans-serif; font-size: 13px; fill: rgb(111, 111, 111);">integer</text></svg><svg x="0" y="99"><rect x="0" y="0" width="209.51513671875" height="33" fill="#F2F2F2"></rect><text x="10" y="19.75" style="font-family: &quot;Open Sans&quot;, sans-serif; font-size: 13px; fill: rgb(111, 111, 111);">member_id</text><text x="156.65576171875" y="19.75" style="font-family: &quot;Open Sans&quot;, sans-serif; font-size: 13px; fill: rgb(111, 111, 111);">integer</text></svg><svg x="0" y="132"><rect x="0" y="0" width="209.51513671875" height="33" fill="#F2F2F2"></rect><text x="10" y="19.75" style="font-family: &quot;Open Sans&quot;, sans-serif; font-size: 13px; fill: rgb(111, 111, 111);">created_at</text><text x="134.22314453125" y="19.75" style="font-family: &quot;Open Sans&quot;, sans-serif; font-size: 13px; fill: rgb(111, 111, 111);">timestamp</text></svg><svg x="383" y="19"><rect x="0" y="0" width="209.51513671875" height="33" fill="#316896"></rect><text x="10" y="19.75" style="font-family: &quot;Open Sans&quot;, sans-serif; font-size: 13px; font-weight: bold; fill: rgb(255, 255, 255);">member</text></svg><svg x="383" y="52"><rect x="0" y="0" width="209.51513671875" height="33" fill="#F2F2F2"></rect><text x="10" y="19.75" style="font-family: &quot;Open Sans&quot;, sans-serif; font-size: 13px; font-weight: bold; fill: black;">_id</text><text x="152.751953125" y="19.75" style="font-family: &quot;Open Sans&quot;, sans-serif; font-size: 13px; font-weight: bold; fill: black;">integer</text></svg><svg x="383" y="85"><rect x="0" y="0" width="209.51513671875" height="33" fill="#F2F2F2"></rect><text x="10" y="19.75" style="font-family: &quot;Open Sans&quot;, sans-serif; font-size: 13px; fill: rgb(111, 111, 111);">member_id</text><text x="153.74853515625" y="19.75" style="font-family: &quot;Open Sans&quot;, sans-serif; font-size: 13px; fill: rgb(111, 111, 111);">varchar</text></svg><svg x="383" y="118"><rect x="0" y="0" width="209.51513671875" height="33" fill="#F2F2F2"></rect><text x="10" y="19.75" style="font-family: &quot;Open Sans&quot;, sans-serif; font-size: 13px; fill: rgb(111, 111, 111);">openid</text><text x="153.74853515625" y="19.75" style="font-family: &quot;Open Sans&quot;, sans-serif; font-size: 13px; fill: rgb(111, 111, 111);">varchar</text></svg><svg x="383" y="151"><rect x="0" y="0" width="209.51513671875" height="33" fill="#F2F2F2"></rect><text x="10" y="19.75" style="font-family: &quot;Open Sans&quot;, sans-serif; font-size: 13px; fill: rgb(111, 111, 111);">unionid</text><text x="153.74853515625" y="19.75" style="font-family: &quot;Open Sans&quot;, sans-serif; font-size: 13px; fill: rgb(111, 111, 111);">varchar</text></svg><svg x="383" y="184"><rect x="0" y="0" width="209.51513671875" height="33" fill="#F2F2F2"></rect><text x="10" y="19.75" style="font-family: &quot;Open Sans&quot;, sans-serif; font-size: 13px; fill: rgb(111, 111, 111);">username</text><text x="153.74853515625" y="19.75" style="font-family: &quot;Open Sans&quot;, sans-serif; font-size: 13px; fill: rgb(111, 111, 111);">varchar</text></svg><svg x="383" y="217"><rect x="0" y="0" width="209.51513671875" height="33" fill="#F2F2F2"></rect><text x="10" y="19.75" style="font-family: &quot;Open Sans&quot;, sans-serif; font-size: 13px; fill: rgb(111, 111, 111);">role</text><text x="153.74853515625" y="19.75" style="font-family: &quot;Open Sans&quot;, sans-serif; font-size: 13px; fill: rgb(111, 111, 111);">varchar</text></svg><svg x="383" y="250"><rect x="0" y="0" width="209.51513671875" height="33" fill="#F2F2F2"></rect><text x="10" y="19.75" style="font-family: &quot;Open Sans&quot;, sans-serif; font-size: 13px; fill: rgb(111, 111, 111);">email</text><text x="153.74853515625" y="19.75" style="font-family: &quot;Open Sans&quot;, sans-serif; font-size: 13px; fill: rgb(111, 111, 111);">varchar</text></svg><svg x="383" y="283"><rect x="0" y="0" width="209.51513671875" height="33" fill="#F2F2F2"></rect><text x="10" y="19.75" style="font-family: &quot;Open Sans&quot;, sans-serif; font-size: 13px; fill: rgb(111, 111, 111);">phone</text><text x="153.74853515625" y="19.75" style="font-family: &quot;Open Sans&quot;, sans-serif; font-size: 13px; fill: rgb(111, 111, 111);">varchar</text></svg><svg x="383" y="316"><rect x="0" y="0" width="209.51513671875" height="33" fill="#F2F2F2"></rect><text x="10" y="19.75" style="font-family: &quot;Open Sans&quot;, sans-serif; font-size: 13px; fill: rgb(111, 111, 111);">province_id</text><text x="153.74853515625" y="19.75" style="font-family: &quot;Open Sans&quot;, sans-serif; font-size: 13px; fill: rgb(111, 111, 111);">varchar</text></svg><svg x="383" y="349"><rect x="0" y="0" width="209.51513671875" height="33" fill="#F2F2F2"></rect><text x="10" y="19.75" style="font-family: &quot;Open Sans&quot;, sans-serif; font-size: 13px; fill: rgb(111, 111, 111);">city_id</text><text x="153.74853515625" y="19.75" style="font-family: &quot;Open Sans&quot;, sans-serif; font-size: 13px; fill: rgb(111, 111, 111);">varchar</text></svg><svg x="383" y="382"><rect x="0" y="0" width="209.51513671875" height="33" fill="#F2F2F2"></rect><text x="10" y="19.75" style="font-family: &quot;Open Sans&quot;, sans-serif; font-size: 13px; fill: rgb(111, 111, 111);">district_id</text><text x="153.74853515625" y="19.75" style="font-family: &quot;Open Sans&quot;, sans-serif; font-size: 13px; fill: rgb(111, 111, 111);">varchar</text></svg><svg x="383" y="415"><rect x="0" y="0" width="209.51513671875" height="33" fill="#F2F2F2"></rect><text x="10" y="19.75" style="font-family: &quot;Open Sans&quot;, sans-serif; font-size: 13px; fill: rgb(111, 111, 111);">address</text><text x="153.74853515625" y="19.75" style="font-family: &quot;Open Sans&quot;, sans-serif; font-size: 13px; fill: rgb(111, 111, 111);">varchar</text></svg><svg x="383" y="448"><rect x="0" y="0" width="209.51513671875" height="33" fill="#F2F2F2"></rect><text x="10" y="19.75" style="font-family: &quot;Open Sans&quot;, sans-serif; font-size: 13px; fill: rgb(111, 111, 111);">avatar_url</text><text x="153.74853515625" y="19.75" style="font-family: &quot;Open Sans&quot;, sans-serif; font-size: 13px; fill: rgb(111, 111, 111);">varchar</text></svg><svg x="383" y="481"><rect x="0" y="0" width="209.51513671875" height="33" fill="#F2F2F2"></rect><text x="10" y="19.75" style="font-family: &quot;Open Sans&quot;, sans-serif; font-size: 13px; fill: rgb(111, 111, 111);">created_at</text><text x="134.22314453125" y="19.75" style="font-family: &quot;Open Sans&quot;, sans-serif; font-size: 13px; fill: rgb(111, 111, 111);">timestamp</text></svg><svg x="383" y="514"><rect x="0" y="0" width="209.51513671875" height="33" fill="#F2F2F2"></rect><text x="10" y="19.75" style="font-family: &quot;Open Sans&quot;, sans-serif; font-size: 13px; fill: rgb(111, 111, 111);">update_at</text><text x="134.22314453125" y="19.75" style="font-family: &quot;Open Sans&quot;, sans-serif; font-size: 13px; fill: rgb(111, 111, 111);">timestamp</text></svg><svg x="383" y="547"><rect x="0" y="0" width="209.51513671875" height="33" fill="#F2F2F2"></rect><text x="10" y="19.75" style="font-family: &quot;Open Sans&quot;, sans-serif; font-size: 13px; fill: rgb(111, 111, 111);">login_at</text><text x="134.22314453125" y="19.75" style="font-family: &quot;Open Sans&quot;, sans-serif; font-size: 13px; fill: rgb(111, 111, 111);">timestamp</text></svg><svg x="95.25000000000001" y="218.5"><rect x="0" y="0" width="191.4052734375" height="33" fill="#316896"></rect><text x="10" y="19.75" style="font-family: &quot;Open Sans&quot;, sans-serif; font-size: 13px; font-weight: bold; fill: rgb(255, 255, 255);">activation_code</text></svg><svg x="95.25000000000001" y="251.5"><rect x="0" y="0" width="191.4052734375" height="33" fill="#F2F2F2"></rect><text x="10" y="19.75" style="font-family: &quot;Open Sans&quot;, sans-serif; font-size: 13px; font-weight: bold; fill: black;">_id</text><text x="134.64208984375" y="19.75" style="font-family: &quot;Open Sans&quot;, sans-serif; font-size: 13px; font-weight: bold; fill: black;">integer</text></svg><svg x="95.25000000000001" y="284.5"><rect x="0" y="0" width="191.4052734375" height="33" fill="#F2F2F2"></rect><text x="10" y="19.75" style="font-family: &quot;Open Sans&quot;, sans-serif; font-size: 13px; fill: rgb(111, 111, 111);">code</text><text x="135.638671875" y="19.75" style="font-family: &quot;Open Sans&quot;, sans-serif; font-size: 13px; fill: rgb(111, 111, 111);">varchar</text></svg><svg x="95.25000000000001" y="317.5"><rect x="0" y="0" width="191.4052734375" height="33" fill="#F2F2F2"></rect><text x="10" y="19.75" style="font-family: &quot;Open Sans&quot;, sans-serif; font-size: 13px; fill: rgb(111, 111, 111);">days</text><text x="138.5458984375" y="19.75" style="font-family: &quot;Open Sans&quot;, sans-serif; font-size: 13px; fill: rgb(111, 111, 111);">integer</text></svg><svg x="95.25000000000001" y="350.5"><rect x="0" y="0" width="191.4052734375" height="33" fill="#F2F2F2"></rect><text x="10" y="19.75" style="font-family: &quot;Open Sans&quot;, sans-serif; font-size: 13px; fill: rgb(111, 111, 111);">role</text><text x="135.638671875" y="19.75" style="font-family: &quot;Open Sans&quot;, sans-serif; font-size: 13px; fill: rgb(111, 111, 111);">varchar</text></svg><svg x="95.25000000000001" y="383.5"><rect x="0" y="0" width="191.4052734375" height="33" fill="#F2F2F2"></rect><text x="10" y="19.75" style="font-family: &quot;Open Sans&quot;, sans-serif; font-size: 13px; fill: rgb(111, 111, 111);">writeoff_id</text><text x="135.638671875" y="19.75" style="font-family: &quot;Open Sans&quot;, sans-serif; font-size: 13px; fill: rgb(111, 111, 111);">varchar</text></svg><svg x="95.25000000000001" y="416.5"><rect x="0" y="0" width="191.4052734375" height="33" fill="#F2F2F2"></rect><text x="10" y="19.75" style="font-family: &quot;Open Sans&quot;, sans-serif; font-size: 13px; fill: rgb(111, 111, 111);">writeoff_at</text><text x="135.638671875" y="19.75" style="font-family: &quot;Open Sans&quot;, sans-serif; font-size: 13px; fill: rgb(111, 111, 111);">varchar</text></svg><svg x="664" y="167"><rect x="0" y="0" width="209.51513671875" height="33" fill="#316896"></rect><text x="10" y="19.75" style="font-family: &quot;Open Sans&quot;, sans-serif; font-size: 13px; font-weight: bold; fill: rgb(255, 255, 255);">serial_code</text></svg><svg x="664" y="200"><rect x="0" y="0" width="209.51513671875" height="33" fill="#F2F2F2"></rect><text x="10" y="19.75" style="font-family: &quot;Open Sans&quot;, sans-serif; font-size: 13px; font-weight: bold; fill: black;">_id</text><text x="152.751953125" y="19.75" style="font-family: &quot;Open Sans&quot;, sans-serif; font-size: 13px; font-weight: bold; fill: black;">integer</text></svg><svg x="664" y="233"><rect x="0" y="0" width="209.51513671875" height="33" fill="#F2F2F2"></rect><text x="10" y="19.75" style="font-family: &quot;Open Sans&quot;, sans-serif; font-size: 13px; fill: rgb(111, 111, 111);">code</text><text x="153.74853515625" y="19.75" style="font-family: &quot;Open Sans&quot;, sans-serif; font-size: 13px; fill: rgb(111, 111, 111);">varchar</text></svg><svg x="664" y="266"><rect x="0" y="0" width="209.51513671875" height="33" fill="#F2F2F2"></rect><text x="10" y="19.75" style="font-family: &quot;Open Sans&quot;, sans-serif; font-size: 13px; fill: rgb(111, 111, 111);">member_id</text><text x="153.74853515625" y="19.75" style="font-family: &quot;Open Sans&quot;, sans-serif; font-size: 13px; fill: rgb(111, 111, 111);">varchar</text></svg><svg x="664" y="299"><rect x="0" y="0" width="209.51513671875" height="33" fill="#F2F2F2"></rect><text x="10" y="19.75" style="font-family: &quot;Open Sans&quot;, sans-serif; font-size: 13px; fill: rgb(111, 111, 111);">created_at</text><text x="134.22314453125" y="19.75" style="font-family: &quot;Open Sans&quot;, sans-serif; font-size: 13px; fill: rgb(111, 111, 111);">timestamp</text></svg><svg x="664" y="332"><rect x="0" y="0" width="209.51513671875" height="33" fill="#F2F2F2"></rect><text x="10" y="19.75" style="font-family: &quot;Open Sans&quot;, sans-serif; font-size: 13px; fill: rgb(111, 111, 111);">binded_at</text><text x="134.22314453125" y="19.75" style="font-family: &quot;Open Sans&quot;, sans-serif; font-size: 13px; fill: rgb(111, 111, 111);">timestamp</text></svg><svg x="8.750000000000028" y="521.5"><rect x="0" y="0" width="198.73681640625" height="33" fill="#316896"></rect><text x="10" y="19.75" style="font-family: &quot;Open Sans&quot;, sans-serif; font-size: 13px; font-weight: bold; fill: rgb(255, 255, 255);">invite_tasks</text></svg><svg x="8.750000000000028" y="554.5"><rect x="0" y="0" width="198.73681640625" height="33" fill="#F2F2F2"></rect><text x="10" y="19.75" style="font-family: &quot;Open Sans&quot;, sans-serif; font-size: 13px; font-weight: bold; fill: black;">_id</text><text x="141.9736328125" y="19.75" style="font-family: &quot;Open Sans&quot;, sans-serif; font-size: 13px; font-weight: bold; fill: black;">integer</text></svg><svg x="8.750000000000028" y="587.5"><rect x="0" y="0" width="198.73681640625" height="33" fill="#F2F2F2"></rect><text x="10" y="19.75" style="font-family: &quot;Open Sans&quot;, sans-serif; font-size: 13px; fill: rgb(111, 111, 111);">id</text><text x="145.87744140625" y="19.75" style="font-family: &quot;Open Sans&quot;, sans-serif; font-size: 13px; fill: rgb(111, 111, 111);">integer</text></svg><svg x="8.750000000000028" y="620.5"><rect x="0" y="0" width="198.73681640625" height="33" fill="#F2F2F2"></rect><text x="10" y="19.75" style="font-family: &quot;Open Sans&quot;, sans-serif; font-size: 13px; fill: rgb(111, 111, 111);">name</text><text x="142.97021484375" y="19.75" style="font-family: &quot;Open Sans&quot;, sans-serif; font-size: 13px; fill: rgb(111, 111, 111);">varchar</text></svg><svg x="8.750000000000028" y="653.5"><rect x="0" y="0" width="198.73681640625" height="33" fill="#F2F2F2"></rect><text x="10" y="19.75" style="font-family: &quot;Open Sans&quot;, sans-serif; font-size: 13px; fill: rgb(111, 111, 111);">project_id</text><text x="145.87744140625" y="19.75" style="font-family: &quot;Open Sans&quot;, sans-serif; font-size: 13px; fill: rgb(111, 111, 111);">integer</text></svg><svg x="8.750000000000028" y="686.5"><rect x="0" y="0" width="198.73681640625" height="33" fill="#F2F2F2"></rect><text x="10" y="19.75" style="font-family: &quot;Open Sans&quot;, sans-serif; font-size: 13px; fill: rgb(111, 111, 111);">describes</text><text x="142.97021484375" y="19.75" style="font-family: &quot;Open Sans&quot;, sans-serif; font-size: 13px; fill: rgb(111, 111, 111);">varchar</text></svg><svg x="8.750000000000028" y="719.5"><rect x="0" y="0" width="198.73681640625" height="33" fill="#F2F2F2"></rect><text x="10" y="19.75" style="font-family: &quot;Open Sans&quot;, sans-serif; font-size: 13px; fill: rgb(111, 111, 111);">target</text><text x="145.87744140625" y="19.75" style="font-family: &quot;Open Sans&quot;, sans-serif; font-size: 13px; fill: rgb(111, 111, 111);">integer</text></svg><svg x="8.750000000000028" y="752.5"><rect x="0" y="0" width="198.73681640625" height="33" fill="#F2F2F2"></rect><text x="10" y="19.75" style="font-family: &quot;Open Sans&quot;, sans-serif; font-size: 13px; fill: rgb(111, 111, 111);">start_at</text><text x="123.44482421875" y="19.75" style="font-family: &quot;Open Sans&quot;, sans-serif; font-size: 13px; fill: rgb(111, 111, 111);">timestamp</text></svg><svg x="8.750000000000028" y="785.5"><rect x="0" y="0" width="198.73681640625" height="33" fill="#F2F2F2"></rect><text x="10" y="19.75" style="font-family: &quot;Open Sans&quot;, sans-serif; font-size: 13px; fill: rgb(111, 111, 111);">end_at</text><text x="123.44482421875" y="19.75" style="font-family: &quot;Open Sans&quot;, sans-serif; font-size: 13px; fill: rgb(111, 111, 111);">timestamp</text></svg><svg x="8.750000000000028" y="818.5"><rect x="0" y="0" width="198.73681640625" height="33" fill="#F2F2F2"></rect><text x="10" y="19.75" style="font-family: &quot;Open Sans&quot;, sans-serif; font-size: 13px; fill: rgb(111, 111, 111);">reward_days</text><text x="145.87744140625" y="19.75" style="font-family: &quot;Open Sans&quot;, sans-serif; font-size: 13px; fill: rgb(111, 111, 111);">integer</text></svg><svg x="272.3287841191068" y="606.6085607940447"><rect x="0" y="0" width="209.6484375" height="33" fill="#316896"></rect><text x="10" y="19.75" style="font-family: &quot;Open Sans&quot;, sans-serif; font-size: 13px; font-weight: bold; fill: rgb(255, 255, 255);">invite_tasks_records</text></svg><svg x="272.3287841191068" y="639.6085607940447"><rect x="0" y="0" width="209.6484375" height="33" fill="#F2F2F2"></rect><text x="10" y="19.75" style="font-family: &quot;Open Sans&quot;, sans-serif; font-size: 13px; font-weight: bold; fill: black;">_id</text><text x="152.88525390625" y="19.75" style="font-family: &quot;Open Sans&quot;, sans-serif; font-size: 13px; font-weight: bold; fill: black;">integer</text></svg><svg x="272.3287841191068" y="672.6085607940447"><rect x="0" y="0" width="209.6484375" height="33" fill="#F2F2F2"></rect><text x="10" y="19.75" style="font-family: &quot;Open Sans&quot;, sans-serif; font-size: 13px; fill: rgb(111, 111, 111);">task_id</text><text x="153.8818359375" y="19.75" style="font-family: &quot;Open Sans&quot;, sans-serif; font-size: 13px; fill: rgb(111, 111, 111);">varchar</text></svg><svg x="272.3287841191068" y="705.6085607940447"><rect x="0" y="0" width="209.6484375" height="33" fill="#F2F2F2"></rect><text x="10" y="19.75" style="font-family: &quot;Open Sans&quot;, sans-serif; font-size: 13px; fill: rgb(111, 111, 111);">member_id</text><text x="153.8818359375" y="19.75" style="font-family: &quot;Open Sans&quot;, sans-serif; font-size: 13px; fill: rgb(111, 111, 111);">varchar</text></svg><svg x="272.3287841191068" y="738.6085607940447"><rect x="0" y="0" width="209.6484375" height="33" fill="#F2F2F2"></rect><text x="10" y="19.75" style="font-family: &quot;Open Sans&quot;, sans-serif; font-size: 13px; fill: rgb(111, 111, 111);">achieve_at</text><text x="134.3564453125" y="19.75" style="font-family: &quot;Open Sans&quot;, sans-serif; font-size: 13px; fill: rgb(111, 111, 111);">timestamp</text></svg></svg>